<?xml version="1.0" encoding="UTF-8" standalone="no"?>
<!DOCTYPE svg PUBLIC "-//W3C//DTD SVG 1.1//EN" "http://www.w3.org/Graphics/SVG/1.1/DTD/svg11.dtd">
<svg width="100%" height="100%" viewBox="0 0 4275 1077" version="1.1" xmlns="http://www.w3.org/2000/svg" xmlns:xlink="http://www.w3.org/1999/xlink" xml:space="preserve" xmlns:serif="http://www.serif.com/" style="fill-rule:evenodd;clip-rule:evenodd;stroke-linejoin:round;stroke-miterlimit:2;">
    <g transform="matrix(4.16667,0,0,4.16667,0,0)">
        <g transform="matrix(0.846843,0,0,0.846843,119.113,-295.189)">
            <g transform="matrix(26.4731,0,0,25.6532,-2155.57,-12248.8)">
                <g transform="matrix(12.669,0,0,12.669,84.9351,501.071)">
                    <path d="M0.054,0L0.054,-0.716L0.167,-0.716L0.167,-0.458C0.184,-0.482 0.203,-0.5 0.223,-0.512C0.244,-0.524 0.266,-0.53 0.29,-0.53C0.34,-0.53 0.383,-0.508 0.417,-0.462C0.452,-0.417 0.469,-0.35 0.469,-0.262C0.469,-0.174 0.451,-0.107 0.416,-0.059C0.381,-0.012 0.339,0.012 0.291,0.012C0.267,0.012 0.243,0.004 0.219,-0.011C0.195,-0.026 0.175,-0.048 0.158,-0.076L0.158,0L0.054,0ZM0.166,-0.271C0.166,-0.226 0.17,-0.192 0.178,-0.168C0.187,-0.145 0.199,-0.127 0.214,-0.115C0.23,-0.103 0.246,-0.097 0.264,-0.097C0.288,-0.097 0.31,-0.11 0.327,-0.135C0.345,-0.161 0.354,-0.202 0.354,-0.258C0.354,-0.317 0.345,-0.36 0.327,-0.386C0.309,-0.412 0.287,-0.425 0.259,-0.425C0.233,-0.425 0.211,-0.413 0.193,-0.387C0.175,-0.362 0.166,-0.323 0.166,-0.271Z" style="fill:rgb(15,42,68);fill-rule:nonzero;"/>
                </g>
                <g transform="matrix(12.669,0,0,12.669,91.2819,501.071)">
                    <path d="M0.143,-0.36L0.041,-0.383C0.053,-0.435 0.074,-0.473 0.102,-0.496C0.131,-0.519 0.172,-0.53 0.225,-0.53C0.273,-0.53 0.309,-0.524 0.334,-0.51C0.359,-0.497 0.377,-0.479 0.388,-0.456C0.398,-0.433 0.404,-0.391 0.404,-0.331L0.403,-0.17C0.403,-0.125 0.405,-0.092 0.408,-0.07C0.412,-0.048 0.418,-0.025 0.428,0L0.317,0L0.302,-0.057C0.283,-0.034 0.262,-0.017 0.24,-0.005C0.219,0.006 0.195,0.012 0.17,0.012C0.129,0.012 0.095,-0.002 0.069,-0.03C0.042,-0.058 0.029,-0.095 0.029,-0.141C0.029,-0.17 0.035,-0.196 0.045,-0.218C0.056,-0.24 0.071,-0.257 0.091,-0.27C0.11,-0.283 0.142,-0.295 0.185,-0.305C0.237,-0.317 0.273,-0.328 0.293,-0.338C0.293,-0.367 0.291,-0.386 0.287,-0.395C0.283,-0.404 0.276,-0.411 0.265,-0.417C0.254,-0.422 0.239,-0.425 0.219,-0.425C0.199,-0.425 0.183,-0.421 0.171,-0.412C0.16,-0.403 0.15,-0.385 0.143,-0.36ZM0.293,-0.249C0.279,-0.243 0.257,-0.236 0.227,-0.229C0.192,-0.219 0.169,-0.209 0.158,-0.198C0.147,-0.187 0.142,-0.173 0.142,-0.155C0.142,-0.135 0.148,-0.119 0.16,-0.105C0.172,-0.092 0.187,-0.085 0.205,-0.085C0.221,-0.085 0.236,-0.09 0.252,-0.101C0.268,-0.112 0.278,-0.125 0.284,-0.14C0.29,-0.155 0.293,-0.182 0.293,-0.222L0.293,-0.249Z" style="fill:rgb(15,42,68);fill-rule:nonzero;"/>
                </g>
                <g transform="matrix(12.669,0,0,12.669,97.0597,501.071)">
                    <path d="M0.43,-0.365L0.319,-0.341C0.311,-0.395 0.285,-0.422 0.242,-0.422C0.215,-0.422 0.192,-0.411 0.175,-0.387C0.158,-0.364 0.15,-0.324 0.15,-0.269C0.15,-0.207 0.158,-0.164 0.175,-0.138C0.192,-0.113 0.215,-0.1 0.243,-0.1C0.264,-0.1 0.282,-0.107 0.295,-0.122C0.309,-0.136 0.319,-0.162 0.325,-0.199L0.436,-0.176C0.413,-0.051 0.347,0.012 0.239,0.012C0.169,0.012 0.118,-0.015 0.084,-0.067C0.051,-0.12 0.034,-0.184 0.034,-0.258C0.034,-0.347 0.053,-0.414 0.091,-0.461C0.129,-0.507 0.179,-0.53 0.24,-0.53C0.29,-0.53 0.331,-0.517 0.362,-0.491C0.393,-0.464 0.416,-0.423 0.43,-0.365Z" style="fill:rgb(15,42,68);fill-rule:nonzero;"/>
                </g>
                <g transform="matrix(12.669,0,0,12.669,102.837,501.071)">
                    <path d="M0.055,0L0.055,-0.716L0.168,-0.716L0.168,-0.336L0.299,-0.519L0.438,-0.519L0.292,-0.329L0.448,0L0.327,0L0.22,-0.233L0.168,-0.166L0.168,0L0.055,0Z" style="fill:rgb(15,42,68);fill-rule:nonzero;"/>
                </g>
                <g transform="matrix(12.669,0,0,12.669,111.504,501.071)">
                    <path d="M0.449,0L0.344,0L0.344,-0.076C0.327,-0.047 0.307,-0.025 0.283,-0.01C0.26,0.004 0.236,0.012 0.211,0.012C0.163,0.012 0.122,-0.012 0.087,-0.059C0.051,-0.107 0.034,-0.174 0.034,-0.262C0.034,-0.351 0.051,-0.418 0.085,-0.463C0.12,-0.508 0.162,-0.53 0.213,-0.53C0.237,-0.53 0.259,-0.524 0.28,-0.512C0.3,-0.5 0.319,-0.482 0.336,-0.458L0.336,-0.716L0.449,-0.716L0.449,0ZM0.149,-0.271C0.149,-0.224 0.153,-0.189 0.161,-0.166C0.169,-0.143 0.18,-0.126 0.195,-0.114C0.21,-0.102 0.227,-0.097 0.245,-0.097C0.27,-0.097 0.291,-0.11 0.31,-0.137C0.328,-0.163 0.337,-0.204 0.337,-0.257C0.337,-0.317 0.328,-0.36 0.31,-0.386C0.293,-0.412 0.27,-0.425 0.243,-0.425C0.217,-0.425 0.194,-0.412 0.176,-0.387C0.158,-0.361 0.149,-0.322 0.149,-0.271Z" style="fill:rgb(15,42,68);fill-rule:nonzero;"/>
                </g>
            </g>
            <g transform="matrix(1.16631,0,0,1.13018,-156.311,-87.5825)">
                <g transform="matrix(287.564,0,0,287.564,751.766,595.273)">
                    <path d="M0.022,-0.299C0.041,-0.299 0.056,-0.305 0.069,-0.316C0.082,-0.327 0.092,-0.344 0.097,-0.365C0.102,-0.386 0.105,-0.427 0.105,-0.488C0.106,-0.547 0.107,-0.586 0.109,-0.606C0.112,-0.638 0.121,-0.664 0.133,-0.685C0.142,-0.7 0.155,-0.711 0.17,-0.718C0.185,-0.725 0.206,-0.728 0.232,-0.728L0.254,-0.728L0.254,-0.651L0.242,-0.651C0.214,-0.651 0.196,-0.645 0.187,-0.634C0.177,-0.622 0.173,-0.594 0.173,-0.551C0.173,-0.461 0.171,-0.404 0.167,-0.38C0.162,-0.348 0.153,-0.323 0.142,-0.305C0.13,-0.288 0.112,-0.272 0.089,-0.259C0.118,-0.244 0.139,-0.222 0.152,-0.191C0.166,-0.161 0.173,-0.11 0.173,-0.039C0.173,0.033 0.174,0.075 0.176,0.087C0.18,0.104 0.186,0.116 0.194,0.123C0.203,0.13 0.219,0.134 0.242,0.134L0.254,0.134L0.254,0.21L0.232,0.21C0.204,0.21 0.183,0.207 0.169,0.2C0.155,0.193 0.144,0.183 0.135,0.169C0.123,0.151 0.115,0.13 0.111,0.105C0.108,0.081 0.106,0.036 0.105,-0.03C0.105,-0.09 0.102,-0.131 0.097,-0.153C0.091,-0.175 0.082,-0.191 0.069,-0.202C0.057,-0.213 0.041,-0.219 0.022,-0.219L0.022,-0.299Z" style="fill:rgb(254,127,45);fill-rule:nonzero;"/>
                </g>
                <g transform="matrix(287.564,0,0,287.564,961.682,595.273)">
                    <path d="M0.25,-0.299L0.25,-0.219C0.231,-0.219 0.216,-0.213 0.203,-0.202C0.19,-0.191 0.181,-0.174 0.176,-0.153C0.17,-0.131 0.167,-0.09 0.167,-0.03C0.167,0.029 0.166,0.068 0.164,0.087C0.16,0.119 0.152,0.145 0.139,0.167C0.13,0.182 0.118,0.193 0.103,0.2C0.087,0.207 0.067,0.21 0.041,0.21L0.018,0.21L0.018,0.134L0.031,0.134C0.058,0.134 0.076,0.128 0.085,0.116C0.094,0.104 0.099,0.076 0.099,0.033C0.099,-0.057 0.101,-0.114 0.105,-0.139C0.111,-0.171 0.12,-0.197 0.133,-0.215C0.146,-0.234 0.163,-0.248 0.183,-0.259C0.153,-0.277 0.131,-0.3 0.118,-0.33C0.105,-0.359 0.099,-0.409 0.099,-0.479C0.099,-0.55 0.098,-0.593 0.096,-0.605C0.093,-0.622 0.087,-0.634 0.078,-0.641C0.069,-0.648 0.054,-0.651 0.031,-0.651L0.018,-0.651L0.018,-0.728L0.041,-0.728C0.069,-0.728 0.09,-0.725 0.104,-0.718C0.118,-0.711 0.129,-0.7 0.138,-0.687C0.15,-0.669 0.158,-0.647 0.161,-0.623C0.165,-0.599 0.167,-0.554 0.167,-0.488C0.167,-0.428 0.17,-0.387 0.176,-0.365C0.181,-0.343 0.19,-0.327 0.203,-0.316C0.216,-0.305 0.231,-0.299 0.25,-0.299Z" style="fill:rgb(254,127,45);fill-rule:nonzero;"/>
                </g>
            </g>
        </g>
        <g transform="matrix(0.00320427,-9.34265,9.34265,0.00320427,-19.2917,247.844)">
            <path d="M1.75,7.75L8.43,7.75C8.766,9.045 9.934,10.009 11.333,10.009C12.732,10.009 13.9,9.045 14.236,7.75L24.25,7.75C24.664,7.75 25,7.414 25,7C25,6.586 24.664,6.25 24.25,6.25L14.236,6.25C13.9,4.955 12.732,3.991 11.333,3.991C9.934,3.991 8.766,4.955 8.43,6.25L1.75,6.25C1.336,6.25 1,6.586 1,7C1,7.414 1.336,7.75 1.75,7.75ZM11.333,5.491C12.165,5.491 12.842,6.168 12.842,7C12.842,7.832 12.165,8.509 11.333,8.509C10.501,8.509 9.824,7.832 9.824,7C9.824,6.168 10.501,5.491 11.333,5.491Z" style="fill:rgb(254,127,45);fill-rule:nonzero;"/>
            <path d="M24.25,12.25L22.644,12.25C22.308,10.955 21.14,9.991 19.741,9.991C18.342,9.991 17.174,10.955 16.839,12.25L1.75,12.25C1.336,12.25 1,12.586 1,13C1,13.414 1.336,13.75 1.75,13.75L16.839,13.75C17.174,15.045 18.342,16.009 19.741,16.009C21.14,16.009 22.308,15.045 22.644,13.75L24.25,13.75C24.664,13.75 25,13.414 25,13C25,12.586 24.664,12.25 24.25,12.25ZM19.741,14.509C18.909,14.509 18.232,13.832 18.232,13C18.232,12.168 18.909,11.491 19.741,11.491C20.573,11.491 21.25,12.168 21.25,13C21.25,13.832 20.573,14.509 19.741,14.509Z" style="fill:rgb(254,127,45);fill-rule:nonzero;"/>
            <path d="M24.25,18.25L9.718,18.25C9.383,16.955 8.214,15.991 6.816,15.991C5.418,15.991 4.249,16.955 3.914,18.25L1.75,18.25C1.336,18.25 1,18.586 1,19C1,19.414 1.336,19.75 1.75,19.75L3.914,19.75C4.249,21.045 5.418,22.009 6.816,22.009C8.214,22.009 9.383,21.045 9.718,19.75L24.25,19.75C24.664,19.75 25,19.414 25,19C25,18.586 24.664,18.25 24.25,18.25ZM6.816,20.509C5.984,20.509 5.308,19.832 5.308,19C5.308,18.168 5.984,17.491 6.816,17.491C7.647,17.491 8.324,18.168 8.324,19C8.324,19.832 7.647,20.509 6.816,20.509Z" style="fill:rgb(254,127,45);fill-rule:nonzero;"/>
        </g>
    </g>
</svg>
